<?xml version="1.0" encoding="utf-8"?>
<!-- Generator: Adobe Illustrator 23.0.1, SVG Export Plug-In . SVG Version: 6.00 Build 0)  -->
<svg version="1.1" id="Layer_1" xmlns="http://www.w3.org/2000/svg" xmlns:xlink="http://www.w3.org/1999/xlink" x="0px" y="0px"
	 viewBox="0 0 8192 2834.7" style="enable-background:new 0 0 8192 2834.7;" xml:space="preserve">
<style type="text/css">
	.st0{fill:#0E517F;}
	.st1{fill:#8AC0E3;}
	.st2{fill:#1C88CA;}
</style>
<g>
	<g id="Logo_3_">
		<polygon class="st0" points="1984.6,723.9 1531,1177.4 1725.6,1372.1 1984.6,1113.1 2476.4,1604.9 2671,1410.3 		"/>
		<g>
			<polygon class="st1" points="1454.1,1177.1 1000.9,723.9 806.3,918.5 1259.5,1371.7 			"/>
			<g>
				<polygon class="st0" points="2476.4,1604.9 3162.8,918.5 2968.2,723.9 2281.8,1410.3 				"/>
				<polygon class="st2" points="2243.3,1448.8 1984.6,1707.5 1492.6,1215.6 1298,1410.2 1984.6,2096.7 2437.9,1643.4 				"/>
			</g>
		</g>
	</g>
	<g>
		<g>
			<path class="st0" d="M3492.8,1095.6c12.8,0,16.2,7.7,18.8,17.9l95.4,518.3l103.2-519.2c0.9-9.4,7.7-17.1,17.1-17.1h67.3
				c10.3,0,16.2,7.7,18.8,17.1l103.2,519.2l94.6-518.3c2.5-10.3,7.7-17.9,18.8-17.9h52.9c12.8,0,17.9,6.8,16.2,19.6l-106.6,578
				c-0.9,10.3-7.7,17.9-17.9,17.9h-102.3c-10.3,0-16.2-6-17.1-17.1l-93.9-475.7l-93.8,475.7c-1.7,11.1-7.7,17.1-17.9,17.1h-101.4
				c-10.3,0-16.2-7.7-18.8-17.9l-106.6-578.8c-1.7-12.8,3.4-18.8,16.2-18.8L3492.8,1095.6L3492.8,1095.6z"/>
			<path class="st0" d="M4172.2,1375.2c0-57.9,38.4-94.6,93.8-94.6h167.1c55.4,0,93.8,36.6,93.8,94.6v72.5c0,54.5-39.2,92-91.3,92
				H4260v46c0,31.6,21.3,52,52,52h165.4c12.8,0,19.6,6,19.6,18.8v35c0,12.8-6.8,19.6-19.6,19.6h-208.9c-57.9,0-96.3-38.4-96.3-97.2
				V1375.2z M4260,1494.5l144.1-11.9c26.4-2.5,40.9-19.6,40.9-43.5V1394c0-26.4-17.9-44.4-42.6-44.4h-97.2
				c-26.4,0-45.2,17.1-45.2,45.2V1494.5z"/>
			<path class="st0" d="M4702.4,1034.2c12.8,0,19.6,6.8,19.6,19.6v243l142.3-13.7c16.2-2.5,33.2-2.5,39.2-2.5
				c57.1,0,92.9,36.6,92.9,93.8v245.5c0,55.4-37.5,93.8-92.9,93.8c-6.8,0-27.3-2.5-44.4-3.4l-137.3-13.7l-11.1,14.5h-57.1
				c-12.8,0-19.6-6.8-19.6-20.4v-636.9c0-12.8,6.8-19.6,19.6-19.6H4702.4z M4722,1353.9v286.4h140.7c28.1,0,46-17.9,46-46v-194.3
				c0-27.3-17.9-46-46-46L4722,1353.9L4722,1353.9z"/>
			<path class="st0" d="M5180.6,1034.2c12.8,0,19.6,6.8,19.6,19.6v243l142.3-13.7c16.2-2.5,33.2-2.5,39.2-2.5
				c57.1,0,92.9,36.6,92.9,93.8v245.5c0,55.4-37.5,93.8-92.9,93.8c-6.8,0-27.3-2.5-44.4-3.4l-137.3-13.7l-11.1,14.5h-57.1
				c-12.8,0-19.6-6.8-19.6-20.4v-636.9c0-12.8,6.8-19.6,19.6-19.6H5180.6z M5200.2,1353.9v286.4h140.7c28.1,0,46-17.9,46-46v-194.3
				c0-27.3-17.9-46-46-46L5200.2,1353.9L5200.2,1353.9z"/>
			<path class="st0" d="M5635,1280.5c9.4,0,14.5,4.3,17.1,13.7l101.4,352.1l102.3-351.2c2.5-7.7,10.3-14.5,17.9-14.5h52
				c11.1,0,21.3,8.5,17.1,21.3l-167.9,578c-1.7,11.1-7.7,16.2-17.1,16.2h-50.3c-11.1,0-21.3-10.3-18.8-23l48.6-162h-41.8
				c-9.4,0-15.3-5.1-17.1-14.5l-113.4-393.8c-2.5-12.8,4.3-22.2,17.9-22.2L5635,1280.5L5635,1280.5z"/>
		</g>
		<g>
			<path class="st2" d="M6221.5,1625.8c0,6,6,11.9,11.9,11.9h234.4c12.8,0,19.6,6.8,19.6,19.6v34.1c0,12.8-6.8,19.6-19.6,19.6
				h-314.6c-12.8,0-19.6-6.8-19.6-19.6v-576.3c0-12.8,6.8-19.6,19.6-19.6h48.6c12.8,0,19.6,6.8,19.6,19.6L6221.5,1625.8
				L6221.5,1625.8z"/>
			<path class="st2" d="M6819.1,1280.5c57.9,0,97.2,39.2,97.2,98v312c0,13.7-6.8,20.4-19.6,20.4h-57.1l-11.1-14.5l-130.4,13.7
				c-19.6,2.5-37.5,3.4-43.5,3.4c-55.4,0-92.9-38.4-92.9-93.8V1543c0-55.4,37.5-93.8,92.9-93.8c6,0,23,0.9,39.2,3.4l134.7,13.7
				v-62.2c0-33.2-20.4-50.3-53.7-50.3h-172.2c-12.8,0-19.6-6.8-19.6-19.6v-34.1c0-12.8,6.8-19.6,19.6-19.6L6819.1,1280.5
				L6819.1,1280.5z M6687.8,1513.3c-26.4,0-44.4,17.1-44.4,44.4v44.4c0,27.3,17.9,45.2,44.4,45.2h140.7v-133.8L6687.8,1513.3
				L6687.8,1513.3z"/>
			<path class="st2" d="M7100.4,1034.2c12.8,0,19.6,6.8,19.6,19.6v243l142.3-13.7c16.2-2.5,33.2-2.5,39.2-2.5
				c57.1,0,92.9,36.6,92.9,93.8v245.5c0,55.4-37.5,93.8-92.9,93.8c-6.8,0-27.3-2.5-44.4-3.4l-137.3-13.7l-11.1,14.5h-57.1
				c-12.8,0-19.6-6.8-19.6-20.4v-636.9c0-12.8,6.8-19.6,19.6-19.6H7100.4z M7119.9,1353.9v286.4h140.7c28.1,0,46-17.9,46-46v-194.3
				c0-27.3-17.9-46-46-46L7119.9,1353.9L7119.9,1353.9z"/>
		</g>
	</g>
</g>
</svg>
